<mxfile host="app.diagrams.net" modified="2022-09-16T14:06:24.078Z" agent="5.0 (Windows NT 10.0; Win64; x64) AppleWebKit/537.36 (KHTML, like Gecko) Chrome/105.0.0.0 Safari/537.36 Edg/105.0.1343.33" etag="ZRD8XYh7SrWdjYeMn83Z" version="20.3.2" type="github">
  <diagram id="aDLKmKCvJ0bB2V0zDD3p" name="第 1 页">
    <mxGraphModel dx="782" dy="474" grid="1" gridSize="10" guides="1" tooltips="1" connect="1" arrows="1" fold="1" page="1" pageScale="1" pageWidth="827" pageHeight="1169" math="0" shadow="0">
      <root>
        <mxCell id="0" />
        <mxCell id="1" parent="0" />
        <mxCell id="4MuBtVkiTCGIPqPdjACA-1" value="开始写作业" style="rounded=1;whiteSpace=wrap;html=1;" vertex="1" parent="1">
          <mxGeometry x="320" y="70" width="120" height="60" as="geometry" />
        </mxCell>
      </root>
    </mxGraphModel>
  </diagram>
</mxfile>
